<svg width="20" height="20" viewBox="0 0 20 20" fill="none" xmlns="http://www.w3.org/2000/svg">
<path d="M19.6486 7.86157L17.1462 5.82204V2.56025C17.1462 2.19294 16.8473 1.89407 16.48 1.89407H14.9054C14.5381 1.89407 14.2392 2.19294 14.2392 2.56025V3.45274L10.8954 0.72753C10.6535 0.530462 10.3347 0.421875 9.99776 0.421875C9.66213 0.421875 9.34485 0.529796 9.1043 0.725834L0.351139 7.86151C-0.046569 8.18558 -0.0227077 8.46785 0.0268923 8.60727C0.0763711 8.74638 0.235709 8.97978 0.746607 8.97978H1.94518V18.3636C1.94518 19.0333 2.48854 19.5781 3.15642 19.5781H6.94152C7.60376 19.5781 8.12247 19.0446 8.12247 18.3636V14.5155C8.12247 14.1857 8.42558 13.8853 8.75837 13.8853H11.302C11.6192 13.8853 11.8773 14.168 11.8773 14.5155V18.3636C11.8773 19.0219 12.4458 19.5781 13.1188 19.5781H16.8433C17.5112 19.5781 18.0546 19.0333 18.0546 18.3636V8.97978H19.2532C19.7641 8.97978 19.9233 8.74638 19.9729 8.60727C20.0225 8.46785 20.0463 8.18558 19.6486 7.86157Z" fill="white"/>
</svg>
